<svg viewBox="0 0 24 24" xmlns="http://www.w3.org/2000/svg" aria-hidden="true">
  <path d="M23.49 12.27c0-.79-.07-1.55-.2-2.27H12v4.3h6.47a5.53 5.53 0 0 1-2.4 3.63v3.02h3.88c2.27-2.09 3.54-5.17 3.54-8.68z" fill="#4285F4"/>
  <path d="M12 24c3.24 0 5.95-1.07 7.93-2.9l-3.88-3.02c-1.07.72-2.44 1.15-4.05 1.15-3.11 0-5.74-2.1-6.68-4.93H1.3v3.09A11.99 11.99 0 0 0 12 24z" fill="#34A853"/>
  <path d="M5.32 14.3A7.2 7.2 0 0 1 4.95 12c0-.8.14-1.57.37-2.3V6.6H1.3A11.99 11.99 0 0 0 0 12c0 1.93.46 3.76 1.3 5.4l4.02-3.1z" fill="#FBBC05"/>
  <path d="M12 4.77c1.76 0 3.34.6 4.58 1.79l3.43-3.43C17.94 1.18 15.24 0 12 0A11.99 11.99 0 0 0 1.3 6.6l4.02 3.1c.94-2.84 3.57-4.93 6.68-4.93z" fill="#EA4335"/>
</svg>
